<?xml version="1.0" encoding="utf-8"?>
<!-- Generator: Adobe Illustrator 24.3.0, SVG Export Plug-In . SVG Version: 6.00 Build 0)  -->
<svg version="1.1" id="Layer_1" xmlns="http://www.w3.org/2000/svg" xmlns:xlink="http://www.w3.org/1999/xlink" x="0px" y="0px"
	 viewBox="0 0 106 92" style="enable-background:new 0 0 106 92;" xml:space="preserve">
<style type="text/css">
	.st0{fill:#FFFFFF;}
	.st1{fill:#F5AF2D;}
</style>
<g>
	<g id="C">
		<path class="st0" d="M9.51,58.59L7.35,43.22c-0.47-3.34,1.4-5.82,4.74-6.29c3.31-0.46,5.82,1.43,6.29,4.74l0.42,3.01l-4.01,0.56
			l-0.46-3.28c-0.13-0.91-0.81-1.42-1.71-1.3c-0.91,0.13-1.42,0.81-1.3,1.72l2.23,15.91c0.13,0.91,0.81,1.42,1.72,1.3
			c0.91-0.13,1.42-0.81,1.3-1.72L16.1,54.6l4.01-0.56l0.42,3.01c0.47,3.34-1.4,5.82-4.74,6.29C12.49,63.8,9.98,61.9,9.51,58.59"/>
	</g>
	<g id="H">
		<polygon class="st0" points="18.68,36.52 22.69,35.95 24.21,46.78 27.21,46.36 25.7,35.53 29.7,34.97 33.27,60.36 29.27,60.93 
			27.74,50.1 24.73,50.53 26.25,61.36 22.25,61.92 		"/>
	</g>
	<g id="U">
		<path class="st0" d="M34.4,55.09l-2.87-20.39l4.01-0.56l2.91,20.65c0.13,0.91,0.81,1.42,1.71,1.29c0.91-0.13,1.42-0.81,1.3-1.72
			l-2.91-20.65l4.01-0.56l2.87,20.39c0.47,3.34-1.4,5.82-4.74,6.29C37.38,60.3,34.87,58.4,34.4,55.09"/>
	</g>
	<g id="R">
		<path class="st0" d="M44.4,32.91l5.51-0.77c3.31-0.46,5.82,1.43,6.29,4.74l0.7,5.01c0.3,2.14-0.37,3.93-1.78,5.06l8.34,18.17
			l-4.17,0.58l-7.98-17.4l-0.63,0.09l1.32,9.35l-4.02,0.56L44.4,32.91z M51.64,44.42c0.91-0.13,1.42-0.81,1.3-1.72l-0.78-5.55
			c-0.13-0.91-0.81-1.42-1.72-1.3l-1.51,0.21l1.21,8.56L51.64,44.42z"/>
	</g>
	<g id="C_1_">
		<path class="st0" d="M59.8,51.52l-2.16-15.38c-0.47-3.34,1.4-5.82,4.74-6.29c3.31-0.46,5.82,1.43,6.29,4.74l0.43,3.02l-4.01,0.56
			l-0.46-3.28c-0.13-0.91-0.81-1.42-1.71-1.29c-0.91,0.13-1.42,0.81-1.3,1.72l2.23,15.91c0.13,0.91,0.81,1.42,1.72,1.3
			c0.91-0.13,1.42-0.81,1.29-1.72l-0.46-3.28l4.01-0.56l0.42,3.01c0.47,3.34-1.4,5.82-4.74,6.29C62.78,56.73,60.26,54.83,59.8,51.52
			"/>
	</g>
	<g id="H_1_">
		<polygon class="st0" points="68.96,29.45 72.97,28.88 74.49,39.71 77.5,39.29 75.98,28.46 79.99,27.9 83.56,53.3 79.55,53.86 
			78.03,43.03 75.02,43.46 76.54,54.29 72.53,54.85 		"/>
	</g>
	<g id="S">
		<path class="st0" d="M86.57,47.97l-0.42-3.01l4.01-0.56l0.46,3.28c0.13,0.91,0.81,1.42,1.71,1.3c0.91-0.13,1.42-0.81,1.3-1.72
			l-0.27-1.94c-0.58-4.17-7.79-4.53-8.66-10.71l-0.28-2c-0.47-3.34,1.4-5.82,4.74-6.29c3.31-0.46,5.82,1.43,6.29,4.74l0.42,3.01
			l-4.01,0.56l-0.46-3.28c-0.13-0.91-0.81-1.42-1.71-1.3c-0.91,0.13-1.42,0.81-1.3,1.72l0.27,1.94c0.58,4.14,7.79,4.53,8.66,10.71
			l0.28,2c0.47,3.34-1.4,5.82-4.74,6.29C89.55,53.18,87.03,51.28,86.57,47.97"/>
	</g>
	<g id="T_1_">
		<polygon class="st0" points="36.56,68.9 34.27,69.22 34.17,68.53 34.84,68.4 34.29,64.53 33.5,64.65 33.59,65.5 32.95,65.59 
			32.72,63.97 36.6,63.43 36.83,65.05 36.19,65.14 36.03,64.29 35.24,64.4 35.78,68.27 36.46,68.21 		"/>
	</g>
	<g id="E">
		<polygon class="st0" points="40.29,66.41 40.2,65.96 39.18,66.11 39.4,67.71 40.74,67.52 40.68,66.88 41.32,66.79 41.53,68.21 
			38.03,68.7 37.92,68 38.47,67.89 37.92,63.98 37.37,64.02 37.27,63.33 40.77,62.84 40.96,64.22 40.32,64.31 40.21,63.71 
			38.87,63.89 39.08,65.39 40.09,65.25 40.07,64.81 40.64,64.73 40.87,66.32 		"/>
	</g>
	<g id="X">
		<polygon class="st0" points="44.64,67.08 45.14,66.99 44.04,65.66 43.4,67.23 43.89,67.19 43.99,67.85 42.2,68.1 42.1,67.41 
			42.48,67.34 43.44,65.11 42.01,63.4 41.63,63.43 41.53,62.73 43.45,62.46 43.55,63.14 43.1,63.22 44.1,64.44 44.69,63 
			44.25,63.04 44.15,62.36 45.88,62.12 45.98,62.81 45.61,62.9 44.71,65 46.23,66.82 46.61,66.78 46.71,67.47 44.74,67.75 		"/>
	</g>
	<g id="A">
		<path class="st0" d="M47.04,66.72l0.41-0.08l0.7-4.84l1.31-0.18l2.01,4.46l0.41-0.03l0.1,0.69l-1.95,0.27l-0.09-0.65l0.55-0.11
			l-0.39-0.88l-1.63,0.23l-0.13,0.96l0.56-0.05L49,67.15l-1.88,0.26L47.04,66.72z M49.79,64.61l-0.39-0.9
			c-0.19-0.44-0.36-0.83-0.51-1.22h-0.01c-0.04,0.41-0.09,0.83-0.16,1.31l-0.13,0.98L49.79,64.61z"/>
	</g>
	<g id="S_1_">
		<path class="st0" d="M54.34,62.5l-0.14-0.76c-0.12-0.03-0.32-0.03-0.54,0.01c-0.53,0.07-0.7,0.33-0.66,0.67
			c0.05,0.38,0.24,0.52,1.07,0.81c1.09,0.39,1.39,0.69,1.5,1.49c0.14,0.97-0.32,1.63-1.58,1.8c-0.44,0.06-0.88,0.05-1.31-0.01
			l-0.19-1.47l0.64-0.09l0.14,0.77c0.19,0.04,0.42,0.03,0.66,0c0.57-0.08,0.75-0.37,0.7-0.77c-0.06-0.4-0.24-0.53-1.12-0.85
			c-1-0.36-1.33-0.65-1.45-1.48c-0.12-0.86,0.31-1.5,1.55-1.67c0.43-0.06,0.85-0.05,1.18,0l0.18,1.46L54.34,62.5z"/>
	</g>
	<g id="C_2_">
		<path class="st0" d="M67.35,60.86l-0.17-0.95c-0.06-0.01-0.2-0.03-0.39,0c-0.71,0.1-1.03,0.43-0.78,2.2
			c0.22,1.56,0.6,1.8,1.41,1.69c0.3-0.04,0.6-0.14,0.92-0.29l0.22,0.78c-0.35,0.16-0.76,0.3-1.16,0.35
			c-1.34,0.19-2.02-0.23-2.31-2.36c-0.33-2.33,0.32-2.98,1.65-3.17c0.37-0.05,0.72-0.05,1.07,0.01l0.22,1.65L67.35,60.86z"/>
	</g>
	<g id="H_2_">
		<polygon class="st0" points="69.21,63.6 69.75,63.5 69.21,59.59 68.65,59.63 68.56,58.93 70.56,58.65 70.66,59.35 70.15,59.45 
			70.36,60.9 72.14,60.66 71.93,59.19 71.41,59.24 71.31,58.54 73.31,58.27 73.41,58.96 72.86,59.06 73.42,62.99 73.97,62.94 
			74.07,63.63 72.07,63.91 71.98,63.22 72.48,63.12 72.25,61.5 70.48,61.75 70.7,63.37 71.21,63.32 71.31,64.02 69.31,64.3 		"/>
	</g>
	<g id="I">
		<polygon class="st0" points="74.71,62.84 75.26,62.72 74.7,58.81 74.15,58.85 74.05,58.16 76.09,57.88 76.19,58.57 75.65,58.68 
			76.2,62.59 76.75,62.54 76.84,63.24 74.8,63.53 		"/>
	</g>
	<g id="C_3_">
		<path class="st0" d="M79.66,59.13l-0.17-0.95c-0.06-0.01-0.2-0.03-0.39,0c-0.71,0.1-1.03,0.43-0.77,2.2
			c0.22,1.56,0.6,1.8,1.4,1.68c0.3-0.04,0.6-0.14,0.92-0.29l0.22,0.78c-0.35,0.16-0.76,0.3-1.16,0.35
			c-1.34,0.19-2.01-0.23-2.31-2.36c-0.33-2.33,0.32-2.98,1.65-3.17c0.37-0.05,0.72-0.05,1.07,0.01l0.22,1.65L79.66,59.13z"/>
	</g>
	<g id="K">
		<polygon class="st0" points="81.52,61.87 82.06,61.77 81.52,57.86 80.96,57.9 80.87,57.2 82.76,56.93 82.86,57.61 82.46,57.68 
			82.71,59.49 83.85,57.49 83.42,57.53 83.32,56.86 85.22,56.59 85.32,57.28 84.95,57.36 83.74,59.41 85.57,61.29 85.97,61.25 
			86.07,61.94 84.1,62.22 84.01,61.55 84.44,61.47 82.74,59.73 83.01,61.67 83.42,61.63 83.51,62.3 81.62,62.56 		"/>
	</g>
	<g id="E_1_">
		<polygon class="st0" points="88.91,59.58 88.81,59.13 87.81,59.27 88.03,60.88 89.37,60.69 89.31,60.04 89.95,59.95 90.15,61.37 
			86.65,61.86 86.55,61.17 87.09,61.06 86.54,57.14 85.99,57.19 85.89,56.5 89.4,56.01 89.59,57.38 88.94,57.47 88.82,56.87 
			87.49,57.06 87.71,58.56 88.71,58.41 88.69,57.97 89.26,57.89 89.49,59.5 		"/>
	</g>
	<g id="N">
		<path class="st0" d="M90.98,61.26l-0.1-0.69l0.54-0.11l-0.55-3.91l-0.55,0.05l-0.1-0.69l1.79-0.25l1.74,2.62
			c0.3,0.46,0.57,0.93,0.83,1.44h0.02c-0.12-0.52-0.24-1.1-0.3-1.52l-0.29-2.1l-0.52,0.05l-0.09-0.68l1.83-0.26l0.1,0.69l-0.49,0.09
			l0.65,4.65l-1.23,0.17l-1.74-2.62c-0.3-0.46-0.57-0.93-0.83-1.44h-0.03c0.12,0.52,0.24,1.1,0.3,1.52l0.29,2.1l0.52-0.05l0.1,0.68
			L90.98,61.26z"/>
	</g>
	<g id="_x27_">
		<path class="st0" d="M81.16,30.05l-0.3-2.14c-0.01-0.09,0.05-0.18,0.15-0.19l2.29-0.32c0.09-0.01,0.18,0.05,0.2,0.15l0.29,2.1
			c0,0.02,0,0.05,0,0.07l-0.65,2.4c-0.02,0.07-0.07,0.12-0.14,0.13l-0.78,0.11c-0.11,0.02-0.21-0.08-0.2-0.2l0.28-1.84
			c0.02-0.11-0.08-0.21-0.19-0.2l-0.74,0.09C81.26,30.21,81.17,30.14,81.16,30.05"/>
	</g>
	<g id="T">
		<polygon class="st0" points="96.56,24.95 96.07,24.95 96.07,26.79 95.62,26.79 95.63,24.95 95.15,24.95 95.15,24.58 96.56,24.59 
					"/>
	</g>
	<g id="M">
		<polygon class="st0" points="97.42,24.59 97.73,26.15 97.74,26.15 98.06,24.59 98.72,24.6 98.71,26.8 98.31,26.8 98.32,25.04 
			98.31,25.04 97.9,26.8 97.56,26.8 97.17,25.03 97.17,25.03 97.16,26.8 96.76,26.8 96.76,24.59 		"/>
	</g>
	<g id="D_Circle">
		<path class="st1" d="M82.63,64.64c-5.41,8.92-14.63,15.44-25.78,17.01c-14.19,1.99-27.61-4.58-35.03-15.78l-9.06,1.28
			c8.58,15.85,26.36,25.51,45.26,22.85c16.06-2.25,28.9-12.84,34.77-26.77L82.63,64.64z"/>
	</g>
	<g id="U_Circle">
		<path class="st1" d="M18.27,33.02c4.56-11.77,15.18-20.78,28.56-22.66c13.38-1.88,26.07,3.85,33.7,13.9l9.29-1.31
			C80.89,8.25,63.78-0.53,45.66,2.01C27.54,4.57,13.51,17.72,8.98,34.32L18.27,33.02z"/>
	</g>
	<g id="M_Arrow">
		<polygon class="st1" points="50.91,13.99 44.21,28.38 49.59,25.42 54.16,29.54 		"/>
	</g>
	<g id="L_Arrow">
		<polygon class="st1" points="47.63,19.41 42.23,18.8 46.23,22.41 		"/>
	</g>
	<g id="R_Arrow">
		<polygon class="st1" points="52.87,20.02 53.54,23.25 58.29,20.65 		"/>
	</g>
</g>
</svg>
